M48
; DRILL file {KiCad 9.0.2} date 2025-08-14T17:02:02+0200
; FORMAT={-:-/ absolute / metric / decimal}
; #@! TF.CreationDate,2025-08-14T17:02:02+02:00
; #@! TF.GenerationSoftware,Kicad,Pcbnew,9.0.2
; #@! TF.FileFunction,Plated,1,2,PTH
FMAT,2
METRIC
; #@! TA.AperFunction,Plated,PTH,ViaDrill
T1C0.300
%
G90
G05
T1
X-10.719Y-31.674
X-10.0Y-30.83
X-9.988Y-32.611
X-9.964Y-27.734
X-9.964Y-35.127
X-9.779Y-37.719
X-8.707Y-9.65
X-8.636Y-43.409
X-8.609Y-19.588
X-8.561Y-37.723
X-7.696Y-35.183
X-7.645Y-30.251
X-7.264Y-2.235
X-7.106Y-22.479
X-7.067Y-20.168
X-6.948Y-3.429
X-6.721Y-6.917
X-6.604Y-35.179
X-6.477Y-9.132
X-6.284Y-12.954
X-6.147Y-5.994
X-5.588Y-32.385
X-5.182Y-41.402
X-5.131Y-2.235
X-5.017Y-17.506
X-4.711Y-18.386
X-4.699Y-26.841
X-4.421Y-10.173
X-4.378Y-32.396
X-4.064Y-4.195
X-4.064Y-5.715
X-3.799Y-12.61
X-3.479Y-32.422
X-3.356Y-34.912
X-2.81Y-16.695
X-2.721Y-27.733
X-2.638Y-43.371
X-2.556Y-4.657
X-2.329Y-2.086
X-2.214Y-31.369
X-1.984Y-16.338
X-1.698Y-8.277
X-1.366Y-31.044
X-1.27Y-38.227
X-1.098Y-14.762
X-1.098Y-12.03
X-1.067Y-2.946
X-0.821Y-4.856
X-0.559Y-2.195
X-0.312Y-17.459
X0.125Y-32.47
X0.33Y-37.059
X0.819Y-8.055
X1.104Y-9.867
X1.93Y-14.376
X2.16Y-32.266
X2.293Y-28.142
X2.351Y-38.099
X2.443Y-6.198
X2.443Y-8.695
X2.629Y-30.484
X3.048Y-2.286
X3.302Y-4.856
X3.723Y-7.397
X4.017Y-43.514
X4.47Y-12.243
X4.623Y-7.391
X4.826Y-10.16
X4.902Y-37.592
X5.16Y-30.503
X5.214Y-14.491
X5.588Y-32.766
X6.493Y-3.068
X6.628Y-24.394
X6.731Y-17.399
X6.805Y-32.006
X6.866Y-36.871
X6.989Y-30.509
X7.468Y-37.871
X7.499Y-12.11
X7.854Y-4.856
X8.23Y-7.366
X8.3Y-18.361
X8.362Y-16.844
X8.928Y-17.716
X8.951Y-14.5
X9.262Y-16.868
X9.316Y-7.423
X9.398Y-43.536
X9.55Y-36.525
X9.777Y-31.75
X10.199Y-7.249
X10.199Y-12.137
X10.199Y-16.844
X10.262Y-39.776
X10.49Y-34.392
M30
