G04 #@! TF.GenerationSoftware,KiCad,Pcbnew,9.0.2*
G04 #@! TF.CreationDate,2025-08-14T17:01:52+02:00*
G04 #@! TF.ProjectId,blue2joy,626c7565-326a-46f7-992e-6b696361645f,rev?*
G04 #@! TF.SameCoordinates,Original*
G04 #@! TF.FileFunction,Soldermask,Top*
G04 #@! TF.FilePolarity,Negative*
%FSLAX46Y46*%
G04 Gerber Fmt 4.6, Leading zero omitted, Abs format (unit mm)*
G04 Created by KiCad (PCBNEW 9.0.2) date 2025-08-14 17:01:52*
%MOMM*%
%LPD*%
G01*
G04 APERTURE LIST*
G04 Aperture macros list*
%AMRoundRect*
0 Rectangle with rounded corners*
0 $1 Rounding radius*
0 $2 $3 $4 $5 $6 $7 $8 $9 X,Y pos of 4 corners*
0 Add a 4 corners polygon primitive as box body*
4,1,4,$2,$3,$4,$5,$6,$7,$8,$9,$2,$3,0*
0 Add four circle primitives for the rounded corners*
1,1,$1+$1,$2,$3*
1,1,$1+$1,$4,$5*
1,1,$1+$1,$6,$7*
1,1,$1+$1,$8,$9*
0 Add four rect primitives between the rounded corners*
20,1,$1+$1,$2,$3,$4,$5,0*
20,1,$1+$1,$4,$5,$6,$7,0*
20,1,$1+$1,$6,$7,$8,$9,0*
20,1,$1+$1,$8,$9,$2,$3,0*%
%AMFreePoly0*
4,1,15,-0.616000,0.142500,-0.283500,0.475000,0.521000,0.475000,0.557355,0.467769,0.588175,0.447175,0.608769,0.416355,0.616000,0.380000,0.616000,-0.380000,0.608769,-0.416355,0.588175,-0.447175,0.557355,-0.467769,0.521000,-0.475000,-0.283500,-0.475000,-0.616000,-0.142500,-0.616000,0.142500,-0.616000,0.142500,$1*%
G04 Aperture macros list end*
%ADD10R,1.846667X3.480000*%
%ADD11R,1.400000X1.600000*%
%ADD12R,0.700000X0.700000*%
%ADD13RoundRect,0.095000X-0.921000X-0.380000X0.921000X-0.380000X0.921000X0.380000X-0.921000X0.380000X0*%
%ADD14RoundRect,0.095000X0.921000X0.380000X-0.921000X0.380000X-0.921000X-0.380000X0.921000X-0.380000X0*%
%ADD15FreePoly0,0.000000*%
%ADD16FreePoly0,180.000000*%
%ADD17C,1.700000*%
%ADD18RoundRect,0.110000X0.440000X-1.140000X0.440000X1.140000X-0.440000X1.140000X-0.440000X-1.140000X0*%
G04 APERTURE END LIST*
D10*
X-5540000Y254000D03*
X-2770000Y254000D03*
X0Y254000D03*
X2770000Y254000D03*
X5540000Y254000D03*
D11*
X-7000000Y-18696000D03*
X-7000000Y-10696000D03*
X-2500000Y-18696000D03*
X-2500000Y-10696000D03*
D12*
X-1016000Y-5885000D03*
X-1016000Y-6985000D03*
X814000Y-6985000D03*
X814000Y-5885000D03*
D11*
X2500000Y-18696000D03*
X2500000Y-10696000D03*
X7000000Y-18696000D03*
X7000000Y-10696000D03*
D13*
X8161500Y-41727823D03*
X8161500Y-39187823D03*
X8161500Y-36647823D03*
X8161500Y-34107823D03*
X8161500Y-31567823D03*
X8161500Y-29027823D03*
X8161500Y-26487823D03*
D14*
X-8348500Y-26487823D03*
X-8348500Y-29027823D03*
X-8348500Y-31567823D03*
X-8348500Y-34107823D03*
X-8348500Y-36647823D03*
X-8348500Y-39187823D03*
X-8348500Y-41727823D03*
D15*
X8561500Y-40457823D03*
X8561500Y-37917823D03*
X8561500Y-35377823D03*
X8561500Y-32837823D03*
X8561500Y-30297823D03*
X8561500Y-27757823D03*
D16*
X-8748500Y-27757823D03*
X-8748500Y-30297823D03*
X-8748500Y-32837823D03*
D17*
X1176500Y-42680323D03*
X-1363500Y-42680323D03*
X1176500Y-40140323D03*
X-1363500Y-40140323D03*
D18*
X900488Y-28590000D03*
X-1099512Y-28590000D03*
M02*
