G04 #@! TF.GenerationSoftware,KiCad,Pcbnew,9.0.2*
G04 #@! TF.CreationDate,2025-08-14T17:01:52+02:00*
G04 #@! TF.ProjectId,blue2joy,626c7565-326a-46f7-992e-6b696361645f,rev?*
G04 #@! TF.SameCoordinates,Original*
G04 #@! TF.FileFunction,Legend,Bot*
G04 #@! TF.FilePolarity,Positive*
%FSLAX46Y46*%
G04 Gerber Fmt 4.6, Leading zero omitted, Abs format (unit mm)*
G04 Created by KiCad (PCBNEW 9.0.2) date 2025-08-14 17:01:52*
%MOMM*%
%LPD*%
G01*
G04 APERTURE LIST*
G04 Aperture macros list*
%AMRoundRect*
0 Rectangle with rounded corners*
0 $1 Rounding radius*
0 $2 $3 $4 $5 $6 $7 $8 $9 X,Y pos of 4 corners*
0 Add a 4 corners polygon primitive as box body*
4,1,4,$2,$3,$4,$5,$6,$7,$8,$9,$2,$3,0*
0 Add four circle primitives for the rounded corners*
1,1,$1+$1,$2,$3*
1,1,$1+$1,$4,$5*
1,1,$1+$1,$6,$7*
1,1,$1+$1,$8,$9*
0 Add four rect primitives between the rounded corners*
20,1,$1+$1,$2,$3,$4,$5,0*
20,1,$1+$1,$4,$5,$6,$7,0*
20,1,$1+$1,$6,$7,$8,$9,0*
20,1,$1+$1,$8,$9,$2,$3,0*%
G04 Aperture macros list end*
%ADD10C,0.200000*%
%ADD11C,0.120000*%
%ADD12R,1.846667X3.480000*%
%ADD13RoundRect,0.250000X0.262500X0.450000X-0.262500X0.450000X-0.262500X-0.450000X0.262500X-0.450000X0*%
%ADD14RoundRect,0.150000X0.150000X-0.512500X0.150000X0.512500X-0.150000X0.512500X-0.150000X-0.512500X0*%
%ADD15RoundRect,0.150000X0.150000X-0.587500X0.150000X0.587500X-0.150000X0.587500X-0.150000X-0.587500X0*%
%ADD16RoundRect,0.150000X-0.150000X0.512500X-0.150000X-0.512500X0.150000X-0.512500X0.150000X0.512500X0*%
%ADD17RoundRect,0.250000X-0.250000X-0.475000X0.250000X-0.475000X0.250000X0.475000X-0.250000X0.475000X0*%
%ADD18RoundRect,0.250000X0.450000X-0.262500X0.450000X0.262500X-0.450000X0.262500X-0.450000X-0.262500X0*%
%ADD19RoundRect,0.250000X-0.262500X-0.450000X0.262500X-0.450000X0.262500X0.450000X-0.262500X0.450000X0*%
%ADD20RoundRect,0.250000X-0.450000X0.262500X-0.450000X-0.262500X0.450000X-0.262500X0.450000X0.262500X0*%
%ADD21RoundRect,0.250000X0.250000X0.475000X-0.250000X0.475000X-0.250000X-0.475000X0.250000X-0.475000X0*%
G04 APERTURE END LIST*
D10*
G36*
X9589575Y-42581874D02*
G01*
X9589575Y-42311253D01*
X8679771Y-41975175D01*
X8457876Y-41902757D01*
X8685266Y-41827652D01*
X9589575Y-41494260D01*
X9589575Y-41233409D01*
X8214000Y-41771598D01*
X8214000Y-42044906D01*
X9589575Y-42581874D01*
G37*
G36*
X8214000Y-39772104D02*
G01*
X8214000Y-40893789D01*
X8434795Y-40893789D01*
X8434795Y-40434735D01*
X9741983Y-40434735D01*
X9511418Y-40862404D01*
X9714628Y-40949843D01*
X10011627Y-40381490D01*
X10011627Y-40171075D01*
X8434795Y-40171075D01*
X8434795Y-39772104D01*
X8214000Y-39772104D01*
G37*
G36*
X10144495Y-38522680D02*
G01*
X9571013Y-38522680D01*
X9597025Y-38647610D01*
X9605207Y-38776692D01*
X9592655Y-38923623D01*
X9556602Y-39052076D01*
X9496526Y-39167207D01*
X9414331Y-39263835D01*
X9311677Y-39340868D01*
X9184498Y-39399756D01*
X9042400Y-39435066D01*
X8873211Y-39447628D01*
X8723879Y-39439790D01*
X8594163Y-39417586D01*
X8474801Y-39379071D01*
X8378619Y-39328071D01*
X8298722Y-39260628D01*
X8239767Y-39179083D01*
X8203288Y-39084376D01*
X8190552Y-38972087D01*
X8194766Y-38924337D01*
X8393762Y-38924337D01*
X8407338Y-39006730D01*
X8447012Y-39074451D01*
X8516250Y-39131333D01*
X8601557Y-39168710D01*
X8721936Y-39194509D01*
X8887866Y-39204362D01*
X9025010Y-39196098D01*
X9132900Y-39173647D01*
X9217030Y-39139717D01*
X9281951Y-39095796D01*
X9336169Y-39037312D01*
X9375096Y-38968849D01*
X9399317Y-38888420D01*
X9407859Y-38793179D01*
X9393448Y-38652495D01*
X9375602Y-38583599D01*
X9351805Y-38522680D01*
X8713965Y-38522680D01*
X8568314Y-38636441D01*
X8474484Y-38733706D01*
X8427293Y-38803798D01*
X8401729Y-38866634D01*
X8393762Y-38924337D01*
X8194766Y-38924337D01*
X8198336Y-38883880D01*
X8221452Y-38800545D01*
X8260284Y-38720761D01*
X8312504Y-38648317D01*
X8383109Y-38576444D01*
X8475095Y-38504850D01*
X8214000Y-38496668D01*
X8214000Y-38283566D01*
X10144495Y-38283566D01*
X10144495Y-38522680D01*
G37*
D11*
X-4089036Y-5361000D02*
X-4543164Y-5361000D01*
X-4089036Y-6831000D02*
X-4543164Y-6831000D01*
X7330000Y-9773500D02*
X7330000Y-8973500D01*
X7330000Y-9773500D02*
X7330000Y-10573500D01*
X10450000Y-9773500D02*
X10450000Y-8973500D01*
X10450000Y-9773500D02*
X10450000Y-10573500D01*
X10730000Y-11313500D02*
X10400000Y-11073500D01*
X10730000Y-10833500D01*
X10730000Y-11313500D01*
G36*
X10730000Y-11313500D02*
G01*
X10400000Y-11073500D01*
X10730000Y-10833500D01*
X10730000Y-11313500D01*
G37*
X-6066000Y-14556500D02*
X-6066000Y-13906500D01*
X-6066000Y-14556500D02*
X-6066000Y-15206500D01*
X-2946000Y-14556500D02*
X-2946000Y-13906500D01*
X-2946000Y-14556500D02*
X-2946000Y-15206500D01*
X-2666000Y-15959000D02*
X-2996000Y-15719000D01*
X-2666000Y-15479000D01*
X-2666000Y-15959000D01*
G36*
X-2666000Y-15959000D02*
G01*
X-2996000Y-15719000D01*
X-2666000Y-15479000D01*
X-2666000Y-15959000D01*
G37*
X-10196000Y-22473500D02*
X-10196000Y-21673500D01*
X-10196000Y-22473500D02*
X-10196000Y-23273500D01*
X-7076000Y-22473500D02*
X-7076000Y-21673500D01*
X-7076000Y-22473500D02*
X-7076000Y-23273500D01*
X-10146000Y-21173500D02*
X-10476000Y-21413500D01*
X-10476000Y-20933500D01*
X-10146000Y-21173500D01*
G36*
X-10146000Y-21173500D02*
G01*
X-10476000Y-21413500D01*
X-10476000Y-20933500D01*
X-10146000Y-21173500D01*
G37*
X-10165600Y-12313500D02*
X-10165600Y-11513500D01*
X-10165600Y-12313500D02*
X-10165600Y-13113500D01*
X-7045600Y-12313500D02*
X-7045600Y-11513500D01*
X-7045600Y-12313500D02*
X-7045600Y-13113500D01*
X-10115600Y-11013500D02*
X-10445600Y-11253500D01*
X-10445600Y-10773500D01*
X-10115600Y-11013500D01*
G36*
X-10115600Y-11013500D02*
G01*
X-10445600Y-11253500D01*
X-10445600Y-10773500D01*
X-10115600Y-11013500D01*
G37*
X-8963252Y-5361000D02*
X-8440748Y-5361000D01*
X-8963252Y-6831000D02*
X-8440748Y-6831000D01*
X8155000Y-30349564D02*
X8155000Y-29895436D01*
X9625000Y-30349564D02*
X9625000Y-29895436D01*
X4702436Y-40667000D02*
X5156564Y-40667000D01*
X4702436Y-42137000D02*
X5156564Y-42137000D01*
X-1245000Y-39448500D02*
X-1245000Y-38798500D01*
X-1245000Y-39448500D02*
X-1245000Y-40098500D01*
X1875000Y-39448500D02*
X1875000Y-38798500D01*
X1875000Y-39448500D02*
X1875000Y-40098500D01*
X2155000Y-40851000D02*
X1825000Y-40611000D01*
X2155000Y-40371000D01*
X2155000Y-40851000D01*
G36*
X2155000Y-40851000D02*
G01*
X1825000Y-40611000D01*
X2155000Y-40371000D01*
X2155000Y-40851000D01*
G37*
X-8385436Y-38127000D02*
X-8839564Y-38127000D01*
X-8385436Y-39597000D02*
X-8839564Y-39597000D01*
X4655436Y-35409200D02*
X5109564Y-35409200D01*
X4655436Y-36879200D02*
X5109564Y-36879200D01*
X-4648564Y-7901000D02*
X-4194436Y-7901000D01*
X-4648564Y-9371000D02*
X-4194436Y-9371000D01*
X-8810852Y-25427000D02*
X-8288348Y-25427000D01*
X-8810852Y-26897000D02*
X-8288348Y-26897000D01*
X4241436Y-8155000D02*
X4695564Y-8155000D01*
X4241436Y-9625000D02*
X4695564Y-9625000D01*
X-76564Y-2821000D02*
X377564Y-2821000D01*
X-76564Y-4291000D02*
X377564Y-4291000D01*
X-8932852Y-7901000D02*
X-8410348Y-7901000D01*
X-8932852Y-9371000D02*
X-8410348Y-9371000D01*
X-1052000Y-30104500D02*
X-1052000Y-29304500D01*
X-1052000Y-30104500D02*
X-1052000Y-30904500D01*
X2068000Y-30104500D02*
X2068000Y-29304500D01*
X2068000Y-30104500D02*
X2068000Y-30904500D01*
X-1002000Y-28804500D02*
X-1332000Y-29044500D01*
X-1332000Y-28564500D01*
X-1002000Y-28804500D01*
G36*
X-1002000Y-28804500D02*
G01*
X-1332000Y-29044500D01*
X-1332000Y-28564500D01*
X-1002000Y-28804500D01*
G37*
X4241436Y-2821000D02*
X4695564Y-2821000D01*
X4241436Y-4291000D02*
X4695564Y-4291000D01*
X-4267564Y-38127000D02*
X-3813436Y-38127000D01*
X-4267564Y-39597000D02*
X-3813436Y-39597000D01*
X8155000Y-34166436D02*
X8155000Y-34620564D01*
X9625000Y-34166436D02*
X9625000Y-34620564D01*
X4241436Y-10441000D02*
X4695564Y-10441000D01*
X4241436Y-11911000D02*
X4695564Y-11911000D01*
X8694748Y-12727000D02*
X9217252Y-12727000D01*
X8694748Y-14197000D02*
X9217252Y-14197000D01*
X-4545064Y-2821000D02*
X-4090936Y-2821000D01*
X-4545064Y-4291000D02*
X-4090936Y-4291000D01*
X-1241100Y-34934373D02*
X-1241100Y-34284373D01*
X-1241100Y-34934373D02*
X-1241100Y-35584373D01*
X1878900Y-34934373D02*
X1878900Y-34284373D01*
X1878900Y-34934373D02*
X1878900Y-35584373D01*
X2158900Y-36336873D02*
X1828900Y-36096873D01*
X2158900Y-35856873D01*
X2158900Y-36336873D01*
G36*
X2158900Y-36336873D02*
G01*
X1828900Y-36096873D01*
X2158900Y-35856873D01*
X2158900Y-36336873D01*
G37*
X327252Y-15267000D02*
X-195252Y-15267000D01*
X327252Y-16737000D02*
X-195252Y-16737000D01*
X-8512436Y-2821000D02*
X-8966564Y-2821000D01*
X-8512436Y-4291000D02*
X-8966564Y-4291000D01*
X8563236Y-2821000D02*
X9017364Y-2821000D01*
X8563236Y-4291000D02*
X9017364Y-4291000D01*
X-4648564Y-10441000D02*
X-4194436Y-10441000D01*
X-4648564Y-11911000D02*
X-4194436Y-11911000D01*
X-8385436Y-35587000D02*
X-8839564Y-35587000D01*
X-8385436Y-37057000D02*
X-8839564Y-37057000D01*
X-5624000Y-34792500D02*
X-5624000Y-33992500D01*
X-5624000Y-34792500D02*
X-5624000Y-35592500D01*
X-2504000Y-34792500D02*
X-2504000Y-33992500D01*
X-2504000Y-34792500D02*
X-2504000Y-35592500D01*
X-2224000Y-36332500D02*
X-2554000Y-36092500D01*
X-2224000Y-35852500D01*
X-2224000Y-36332500D01*
G36*
X-2224000Y-36332500D02*
G01*
X-2554000Y-36092500D01*
X-2224000Y-35852500D01*
X-2224000Y-36332500D01*
G37*
X5203564Y-38127000D02*
X4749436Y-38127000D01*
X5203564Y-39597000D02*
X4749436Y-39597000D01*
X4702436Y-32996200D02*
X5156564Y-32996200D01*
X4702436Y-34466200D02*
X5156564Y-34466200D01*
X4695564Y-5361000D02*
X4241436Y-5361000D01*
X4695564Y-6831000D02*
X4241436Y-6831000D01*
X2946000Y-14610500D02*
X2946000Y-13810500D01*
X2946000Y-14610500D02*
X2946000Y-15410500D01*
X6066000Y-14610500D02*
X6066000Y-13810500D01*
X6066000Y-14610500D02*
X6066000Y-15410500D01*
X2996000Y-13310500D02*
X2666000Y-13550500D01*
X2666000Y-13070500D01*
X2996000Y-13310500D01*
G36*
X2996000Y-13310500D02*
G01*
X2666000Y-13550500D01*
X2666000Y-13070500D01*
X2996000Y-13310500D01*
G37*
X-10196000Y-30104500D02*
X-10196000Y-29304500D01*
X-10196000Y-30104500D02*
X-10196000Y-30904500D01*
X-7076000Y-30104500D02*
X-7076000Y-29304500D01*
X-7076000Y-30104500D02*
X-7076000Y-30904500D01*
X-10146000Y-28804500D02*
X-10476000Y-29044500D01*
X-10476000Y-28564500D01*
X-10146000Y-28804500D01*
G36*
X-10146000Y-28804500D02*
G01*
X-10476000Y-29044500D01*
X-10476000Y-28564500D01*
X-10146000Y-28804500D01*
G37*
X-8308748Y-40667000D02*
X-8831252Y-40667000D01*
X-8308748Y-42137000D02*
X-8831252Y-42137000D01*
X-1494000Y-9730500D02*
X-1494000Y-9080500D01*
X-1494000Y-9730500D02*
X-1494000Y-10380500D01*
X1626000Y-9730500D02*
X1626000Y-9080500D01*
X1626000Y-9730500D02*
X1626000Y-10380500D01*
X1906000Y-11133000D02*
X1576000Y-10893000D01*
X1906000Y-10653000D01*
X1906000Y-11133000D01*
G36*
X1906000Y-11133000D02*
G01*
X1576000Y-10893000D01*
X1906000Y-10653000D01*
X1906000Y-11133000D01*
G37*
X-8385436Y-33047000D02*
X-8839564Y-33047000D01*
X-8385436Y-34517000D02*
X-8839564Y-34517000D01*
X377564Y-5361000D02*
X-76564Y-5361000D01*
X377564Y-6831000D02*
X-76564Y-6831000D01*
X9064364Y-5361000D02*
X8610236Y-5361000D01*
X9064364Y-6831000D02*
X8610236Y-6831000D01*
X-5624000Y-30104500D02*
X-5624000Y-29304500D01*
X-5624000Y-30104500D02*
X-5624000Y-30904500D01*
X-2504000Y-30104500D02*
X-2504000Y-29304500D01*
X-2504000Y-30104500D02*
X-2504000Y-30904500D01*
X-2224000Y-31644500D02*
X-2554000Y-31404500D01*
X-2224000Y-31164500D01*
X-2224000Y-31644500D01*
G36*
X-2224000Y-31644500D02*
G01*
X-2554000Y-31404500D01*
X-2224000Y-31164500D01*
X-2224000Y-31644500D01*
G37*
X-8932852Y-15267000D02*
X-8410348Y-15267000D01*
X-8932852Y-16737000D02*
X-8410348Y-16737000D01*
X-123564Y-12727000D02*
X330564Y-12727000D01*
X-123564Y-14197000D02*
X330564Y-14197000D01*
X3520000Y-30093500D02*
X3520000Y-29293500D01*
X3520000Y-30093500D02*
X3520000Y-30893500D01*
X6640000Y-30093500D02*
X6640000Y-29293500D01*
X6640000Y-30093500D02*
X6640000Y-30893500D01*
X6920000Y-31633500D02*
X6590000Y-31393500D01*
X6920000Y-31153500D01*
X6920000Y-31633500D01*
G36*
X6920000Y-31633500D02*
G01*
X6590000Y-31393500D01*
X6920000Y-31153500D01*
X6920000Y-31633500D01*
G37*
X-8932852Y-17807000D02*
X-8410348Y-17807000D01*
X-8932852Y-19277000D02*
X-8410348Y-19277000D01*
%LPC*%
D12*
X-4155000Y254000D03*
X-1385000Y254000D03*
X1385000Y254000D03*
X4155000Y254000D03*
D13*
X-3403600Y-6096000D03*
X-5228600Y-6096000D03*
D14*
X9840000Y-10911000D03*
X8890000Y-10911000D03*
X7940000Y-10911000D03*
X7940000Y-8636000D03*
X8890000Y-8636000D03*
X9840000Y-8636000D03*
D15*
X-3556000Y-15494000D03*
X-5456000Y-15494000D03*
X-4506000Y-13619000D03*
D16*
X-9586000Y-21336000D03*
X-8636000Y-21336000D03*
X-7686000Y-21336000D03*
X-7686000Y-23611000D03*
X-9586000Y-23611000D03*
X-9555600Y-11176000D03*
X-8605600Y-11176000D03*
X-7655600Y-11176000D03*
X-7655600Y-13451000D03*
X-9555600Y-13451000D03*
D17*
X-9652000Y-6096000D03*
X-7752000Y-6096000D03*
D18*
X8890000Y-31035000D03*
X8890000Y-29210000D03*
D19*
X4017000Y-41402000D03*
X5842000Y-41402000D03*
D15*
X1265000Y-40386000D03*
X-635000Y-40386000D03*
X315000Y-38511000D03*
D13*
X-7700000Y-38862000D03*
X-9525000Y-38862000D03*
D19*
X3970000Y-36144200D03*
X5795000Y-36144200D03*
X-5334000Y-8636000D03*
X-3509000Y-8636000D03*
D17*
X-9499600Y-26162000D03*
X-7599600Y-26162000D03*
D19*
X3556000Y-8890000D03*
X5381000Y-8890000D03*
X-762000Y-3556000D03*
X1063000Y-3556000D03*
D17*
X-9621600Y-8636000D03*
X-7721600Y-8636000D03*
D16*
X-442000Y-28967000D03*
X508000Y-28967000D03*
X1458000Y-28967000D03*
X1458000Y-31242000D03*
X508000Y-31242000D03*
X-442000Y-31242000D03*
D19*
X3556000Y-3556000D03*
X5381000Y-3556000D03*
X-4953000Y-38862000D03*
X-3128000Y-38862000D03*
D20*
X8890000Y-33481000D03*
X8890000Y-35306000D03*
D19*
X3556000Y-11176000D03*
X5381000Y-11176000D03*
D17*
X8006000Y-13462000D03*
X9906000Y-13462000D03*
D19*
X-5230500Y-3556000D03*
X-3405500Y-3556000D03*
D15*
X1268900Y-35871873D03*
X-631100Y-35871873D03*
X318900Y-33996873D03*
D21*
X1016000Y-16002000D03*
X-884000Y-16002000D03*
D13*
X-7827000Y-3556000D03*
X-9652000Y-3556000D03*
D19*
X7877800Y-3556000D03*
X9702800Y-3556000D03*
X-5334000Y-11176000D03*
X-3509000Y-11176000D03*
D13*
X-7700000Y-36322000D03*
X-9525000Y-36322000D03*
D14*
X-3114000Y-35930000D03*
X-4064000Y-35930000D03*
X-5014000Y-35930000D03*
X-5014000Y-33655000D03*
X-4064000Y-33655000D03*
X-3114000Y-33655000D03*
D13*
X5889000Y-38862000D03*
X4064000Y-38862000D03*
D19*
X4017000Y-33731200D03*
X5842000Y-33731200D03*
D13*
X5381000Y-6096000D03*
X3556000Y-6096000D03*
D16*
X3556000Y-13473000D03*
X4506000Y-13473000D03*
X5456000Y-13473000D03*
X5456000Y-15748000D03*
X3556000Y-15748000D03*
X-9586000Y-28967000D03*
X-8636000Y-28967000D03*
X-7686000Y-28967000D03*
X-7686000Y-31242000D03*
X-8636000Y-31242000D03*
X-9586000Y-31242000D03*
D21*
X-7620000Y-41402000D03*
X-9520000Y-41402000D03*
D15*
X1016000Y-10668000D03*
X-884000Y-10668000D03*
X66000Y-8793000D03*
D13*
X-7700000Y-33782000D03*
X-9525000Y-33782000D03*
X1063000Y-6096000D03*
X-762000Y-6096000D03*
X9749800Y-6096000D03*
X7924800Y-6096000D03*
D14*
X-3114000Y-31242000D03*
X-4064000Y-31242000D03*
X-5014000Y-31242000D03*
X-5014000Y-28967000D03*
X-4064000Y-28967000D03*
X-3114000Y-28967000D03*
D17*
X-9621600Y-16002000D03*
X-7721600Y-16002000D03*
D19*
X-809000Y-13462000D03*
X1016000Y-13462000D03*
D14*
X6030000Y-31231000D03*
X5080000Y-31231000D03*
X4130000Y-31231000D03*
X4130000Y-28956000D03*
X5080000Y-28956000D03*
X6030000Y-28956000D03*
D17*
X-9621600Y-18542000D03*
X-7721600Y-18542000D03*
%LPD*%
M02*
