G04 #@! TF.GenerationSoftware,KiCad,Pcbnew,9.0.2*
G04 #@! TF.CreationDate,2025-08-14T17:01:52+02:00*
G04 #@! TF.ProjectId,blue2joy,626c7565-326a-46f7-992e-6b696361645f,rev?*
G04 #@! TF.SameCoordinates,Original*
G04 #@! TF.FileFunction,Soldermask,Bot*
G04 #@! TF.FilePolarity,Negative*
%FSLAX46Y46*%
G04 Gerber Fmt 4.6, Leading zero omitted, Abs format (unit mm)*
G04 Created by KiCad (PCBNEW 9.0.2) date 2025-08-14 17:01:52*
%MOMM*%
%LPD*%
G01*
G04 APERTURE LIST*
G04 Aperture macros list*
%AMRoundRect*
0 Rectangle with rounded corners*
0 $1 Rounding radius*
0 $2 $3 $4 $5 $6 $7 $8 $9 X,Y pos of 4 corners*
0 Add a 4 corners polygon primitive as box body*
4,1,4,$2,$3,$4,$5,$6,$7,$8,$9,$2,$3,0*
0 Add four circle primitives for the rounded corners*
1,1,$1+$1,$2,$3*
1,1,$1+$1,$4,$5*
1,1,$1+$1,$6,$7*
1,1,$1+$1,$8,$9*
0 Add four rect primitives between the rounded corners*
20,1,$1+$1,$2,$3,$4,$5,0*
20,1,$1+$1,$4,$5,$6,$7,0*
20,1,$1+$1,$6,$7,$8,$9,0*
20,1,$1+$1,$8,$9,$2,$3,0*%
G04 Aperture macros list end*
%ADD10R,1.846667X3.480000*%
%ADD11RoundRect,0.250000X0.262500X0.450000X-0.262500X0.450000X-0.262500X-0.450000X0.262500X-0.450000X0*%
%ADD12RoundRect,0.150000X0.150000X-0.512500X0.150000X0.512500X-0.150000X0.512500X-0.150000X-0.512500X0*%
%ADD13RoundRect,0.150000X0.150000X-0.587500X0.150000X0.587500X-0.150000X0.587500X-0.150000X-0.587500X0*%
%ADD14RoundRect,0.150000X-0.150000X0.512500X-0.150000X-0.512500X0.150000X-0.512500X0.150000X0.512500X0*%
%ADD15RoundRect,0.250000X-0.250000X-0.475000X0.250000X-0.475000X0.250000X0.475000X-0.250000X0.475000X0*%
%ADD16RoundRect,0.250000X0.450000X-0.262500X0.450000X0.262500X-0.450000X0.262500X-0.450000X-0.262500X0*%
%ADD17RoundRect,0.250000X-0.262500X-0.450000X0.262500X-0.450000X0.262500X0.450000X-0.262500X0.450000X0*%
%ADD18RoundRect,0.250000X-0.450000X0.262500X-0.450000X-0.262500X0.450000X-0.262500X0.450000X0.262500X0*%
%ADD19RoundRect,0.250000X0.250000X0.475000X-0.250000X0.475000X-0.250000X-0.475000X0.250000X-0.475000X0*%
G04 APERTURE END LIST*
D10*
X-4155000Y254000D03*
X-1385000Y254000D03*
X1385000Y254000D03*
X4155000Y254000D03*
D11*
X-3403600Y-6096000D03*
X-5228600Y-6096000D03*
D12*
X9840000Y-10911000D03*
X8890000Y-10911000D03*
X7940000Y-10911000D03*
X7940000Y-8636000D03*
X8890000Y-8636000D03*
X9840000Y-8636000D03*
D13*
X-3556000Y-15494000D03*
X-5456000Y-15494000D03*
X-4506000Y-13619000D03*
D14*
X-9586000Y-21336000D03*
X-8636000Y-21336000D03*
X-7686000Y-21336000D03*
X-7686000Y-23611000D03*
X-9586000Y-23611000D03*
X-9555600Y-11176000D03*
X-8605600Y-11176000D03*
X-7655600Y-11176000D03*
X-7655600Y-13451000D03*
X-9555600Y-13451000D03*
D15*
X-9652000Y-6096000D03*
X-7752000Y-6096000D03*
D16*
X8890000Y-31035000D03*
X8890000Y-29210000D03*
D17*
X4017000Y-41402000D03*
X5842000Y-41402000D03*
D13*
X1265000Y-40386000D03*
X-635000Y-40386000D03*
X315000Y-38511000D03*
D11*
X-7700000Y-38862000D03*
X-9525000Y-38862000D03*
D17*
X3970000Y-36144200D03*
X5795000Y-36144200D03*
X-5334000Y-8636000D03*
X-3509000Y-8636000D03*
D15*
X-9499600Y-26162000D03*
X-7599600Y-26162000D03*
D17*
X3556000Y-8890000D03*
X5381000Y-8890000D03*
X-762000Y-3556000D03*
X1063000Y-3556000D03*
D15*
X-9621600Y-8636000D03*
X-7721600Y-8636000D03*
D14*
X-442000Y-28967000D03*
X508000Y-28967000D03*
X1458000Y-28967000D03*
X1458000Y-31242000D03*
X508000Y-31242000D03*
X-442000Y-31242000D03*
D17*
X3556000Y-3556000D03*
X5381000Y-3556000D03*
X-4953000Y-38862000D03*
X-3128000Y-38862000D03*
D18*
X8890000Y-33481000D03*
X8890000Y-35306000D03*
D17*
X3556000Y-11176000D03*
X5381000Y-11176000D03*
D15*
X8006000Y-13462000D03*
X9906000Y-13462000D03*
D17*
X-5230500Y-3556000D03*
X-3405500Y-3556000D03*
D13*
X1268900Y-35871873D03*
X-631100Y-35871873D03*
X318900Y-33996873D03*
D19*
X1016000Y-16002000D03*
X-884000Y-16002000D03*
D11*
X-7827000Y-3556000D03*
X-9652000Y-3556000D03*
D17*
X7877800Y-3556000D03*
X9702800Y-3556000D03*
X-5334000Y-11176000D03*
X-3509000Y-11176000D03*
D11*
X-7700000Y-36322000D03*
X-9525000Y-36322000D03*
D12*
X-3114000Y-35930000D03*
X-4064000Y-35930000D03*
X-5014000Y-35930000D03*
X-5014000Y-33655000D03*
X-4064000Y-33655000D03*
X-3114000Y-33655000D03*
D11*
X5889000Y-38862000D03*
X4064000Y-38862000D03*
D17*
X4017000Y-33731200D03*
X5842000Y-33731200D03*
D11*
X5381000Y-6096000D03*
X3556000Y-6096000D03*
D14*
X3556000Y-13473000D03*
X4506000Y-13473000D03*
X5456000Y-13473000D03*
X5456000Y-15748000D03*
X3556000Y-15748000D03*
X-9586000Y-28967000D03*
X-8636000Y-28967000D03*
X-7686000Y-28967000D03*
X-7686000Y-31242000D03*
X-8636000Y-31242000D03*
X-9586000Y-31242000D03*
D19*
X-7620000Y-41402000D03*
X-9520000Y-41402000D03*
D13*
X1016000Y-10668000D03*
X-884000Y-10668000D03*
X66000Y-8793000D03*
D11*
X-7700000Y-33782000D03*
X-9525000Y-33782000D03*
X1063000Y-6096000D03*
X-762000Y-6096000D03*
X9749800Y-6096000D03*
X7924800Y-6096000D03*
D12*
X-3114000Y-31242000D03*
X-4064000Y-31242000D03*
X-5014000Y-31242000D03*
X-5014000Y-28967000D03*
X-4064000Y-28967000D03*
X-3114000Y-28967000D03*
D15*
X-9621600Y-16002000D03*
X-7721600Y-16002000D03*
D17*
X-809000Y-13462000D03*
X1016000Y-13462000D03*
D12*
X6030000Y-31231000D03*
X5080000Y-31231000D03*
X4130000Y-31231000D03*
X4130000Y-28956000D03*
X5080000Y-28956000D03*
X6030000Y-28956000D03*
D15*
X-9621600Y-18542000D03*
X-7721600Y-18542000D03*
M02*
